<?xml version="1.0" encoding="UTF-8" standalone="no"?>
<svg
   xmlns:osb="http://www.openswatchbook.org/uri/2009/osb"
   xmlns:dc="http://purl.org/dc/elements/1.1/"
   xmlns:cc="http://creativecommons.org/ns#"
   xmlns:rdf="http://www.w3.org/1999/02/22-rdf-syntax-ns#"
   xmlns:svg="http://www.w3.org/2000/svg"
   xmlns="http://www.w3.org/2000/svg"
   xmlns:sodipodi="http://sodipodi.sourceforge.net/DTD/sodipodi-0.dtd"
   xmlns:inkscape="http://www.inkscape.org/namespaces/inkscape"
   width="582"
   height="582"
   viewBox="-291 -291 582 582"
   version="1.1"
   id="svg4684"
   inkscape:version="0.91 r13725"
   sodipodi:docname="logo.svg"
   inkscape:export-filename="\\SHIBUYA\ogochan\git\napier\web\public\logo.png"
   inkscape:export-xdpi="18.75"
   inkscape:export-ydpi="18.75">
  <metadata
     id="metadata4716">
    <rdf:RDF>
      <cc:Work
         rdf:about="">
        <dc:format>image/svg+xml</dc:format>
        <dc:type
           rdf:resource="http://purl.org/dc/dcmitype/StillImage" />
        <dc:title></dc:title>
      </cc:Work>
    </rdf:RDF>
  </metadata>
  <defs
     id="defs4714">
    <linearGradient
       id="linearGradient5586"
       osb:paint="solid">
      <stop
         style="stop-color:#000000;stop-opacity:1;"
         offset="0"
         id="stop5588" />
    </linearGradient>
  </defs>
  <sodipodi:namedview
     pagecolor="#ffffff"
     bordercolor="#666666"
     borderopacity="1"
     objecttolerance="10"
     gridtolerance="10"
     guidetolerance="10"
     inkscape:pageopacity="0"
     inkscape:pageshadow="2"
     inkscape:window-width="1362"
     inkscape:window-height="1135"
     id="namedview4712"
     showgrid="false"
     inkscape:zoom="1.3814433"
     inkscape:cx="291"
     inkscape:cy="291"
     inkscape:window-x="2849"
     inkscape:window-y="572"
     inkscape:window-maximized="0"
     inkscape:current-layer="svg4684" />
  <circle
     id="circle4686"
     r="288"
     cx="-2.955224"
     cy="0.72388059"
     style="fill:#ffffff;stroke-width:20;stroke-miterlimit:4;stroke-dasharray:none" />
  <path
     style="fill:none;stroke:#0000ff;stroke-width:20;stroke-linecap:square;fill-opacity:1;stroke-miterlimit:4;stroke-dasharray:none"
     inkscape:connector-curvature="0"
     id="path4710"
     d="m -9.2618743,6.6898407 c 2.93,0.23 4.9,-1.9000002 4.77,-4.8000002 -0.13,-2.9 -2.9,-5.17 -6.0699997,-5.13 -3.17,0.04 -7.100004,2.92000004 -7.000004,8.03 0.1,5.1100002 4.780004,9.4000005 10.5000037,9.2000005 5.72,-0.2 11.95,-5.0000003 12.1,-13.40000046 0.15,-8.40000004 -7.42,-16.26999954 -17.5999997,-16.34999954 -10.180004,-0.08 -21.670004,8.7999995 -21.440004,23.6499997 0.23,14.8500003 13.36,27.9800003 31.2400037,27.7000003 17.8800003,-0.28 36.2000003,-16.35 36.2000003,-40.3000005 0,-23.9499995 -20.68,-47.8999995 -52.400004,-48.3999995 -31.72,-0.5 -65,27.3 -64,72 1,44.7 42.78,82.319999 92.3000037,81 49.5200003,-1.32 108.0300043,-41.39 108.8000043,-119.8 0.77,-78.409998 -70.430004,-145.400001 -157.700008,-144.600001 -87.270002,0.8 -166.150002,65.850003 -185.999992,161.2700005 -19.85,95.4200005 29.11999,252.8799995 216.2999957,291.1599995"
     inkscape:export-xdpi="18.75"
     inkscape:export-ydpi="18.75" />
</svg>
